<svg width="35" height="36" viewBox="0 0 35 36" fill="none" xmlns="http://www.w3.org/2000/svg">
<path d="M34.375 33.4988C34.375 33.9961 34.1775 34.473 33.8258 34.8246C33.4742 35.1763 32.9973 35.3738 32.5 35.3738H2.5C2.00272 35.3738 1.52581 35.1763 1.17418 34.8246C0.822544 34.473 0.625 33.9961 0.625 33.4988V13.7926C0.624802 13.5068 0.689907 13.2248 0.815343 12.9681C0.940778 12.7114 1.12323 12.4867 1.34875 12.3113L16.3487 0.645051C16.6779 0.389011 17.083 0.25 17.5 0.25C17.917 0.25 18.3221 0.389011 18.6513 0.645051L33.6512 12.3113C33.8768 12.4867 34.0592 12.7114 34.1847 12.9681C34.3101 13.2248 34.3752 13.5068 34.375 13.7926V33.4988ZM15.625 20.3738V31.6238H19.375V20.3738H15.625Z" fill="#1F3A45"/>
</svg>
