<svg width="45" height="45" viewBox="0 0 45 45" fill="none" xmlns="http://www.w3.org/2000/svg">
<g opacity="0.4">
<path d="M16.875 35.625H22.5V24.2663L15 17.7263L7.5 24.2663V35.625H13.125V28.125H16.875V35.625ZM39.375 39.375H5.625C5.12772 39.375 4.65081 39.1775 4.29917 38.8258C3.94754 38.4742 3.75 37.9973 3.75 37.5V23.4131C3.74997 23.1452 3.80736 22.8804 3.9183 22.6365C4.02923 22.3927 4.19115 22.1754 4.39312 21.9994L11.25 16.02V7.5C11.25 7.00272 11.4475 6.52581 11.7992 6.17417C12.1508 5.82254 12.6277 5.625 13.125 5.625H39.375C39.8723 5.625 40.3492 5.82254 40.7008 6.17417C41.0525 6.52581 41.25 7.00272 41.25 7.5V37.5C41.25 37.9973 41.0525 38.4742 40.7008 38.8258C40.3492 39.1775 39.8723 39.375 39.375 39.375ZM30 20.625V24.375H33.75V20.625H30ZM30 28.125V31.875H33.75V28.125H30ZM30 13.125V16.875H33.75V13.125H30ZM22.5 13.125V16.875H26.25V13.125H22.5Z" fill="#1F3A45"/>
</g>
</svg>
