<svg width="36" height="36" viewBox="0 0 36 36" fill="none" xmlns="http://www.w3.org/2000/svg">
<path fill-rule="evenodd" clip-rule="evenodd" d="M29 17.3907C29 15.3422 28.9826 13.6628 28.5041 11.6492C27.0923 5.70778 20.2114 2.79283 14.5407 4.46892C13.8548 4.67234 13.1873 4.93131 12.5452 5.24315C11.7069 5.6487 11.0784 6.14547 10.3572 6.72922C10.2826 6.78757 10.2114 6.85318 10.1424 6.91671L10.1315 6.92679C8.97382 7.98841 8.0091 9.30857 7.49828 10.789C7.0931 11.9669 7.01254 13.3556 7.69798 14.542C8.41139 15.7766 10.089 16.159 11.3736 15.6877C12.4695 15.2859 13.2364 14.1908 13.2471 13.2573C13.2619 11.9504 12.9384 11.5527 12.5046 11.0194C12.4454 10.9466 12.3841 10.8713 12.3214 10.7909C12.3279 10.7821 12.3386 10.7644 12.354 10.7389C12.5278 10.4515 13.3014 9.17235 15.3545 8.46297C18.3239 7.43728 21.5007 8.07727 23.5238 10.5101C25.0451 12.3398 25.1879 14.542 25.1223 16.8306L7 16.9786V20.9991C7 21.823 7.50503 22.9125 8.24111 23.3109L24.3404 32H29V17.3907ZM25.1348 27.1504L13.1424 20.9915L25.1348 20.9982V27.1504Z" fill="#A2B4A8"/>
</svg>
