<svg width="45" height="45" viewBox="0 0 45 45" fill="none" xmlns="http://www.w3.org/2000/svg">
<g opacity="0.4">
<path d="M3.75 35.625V15H1.875V11.25H7.5V7.5C7.5 7.00272 7.69754 6.52581 8.04918 6.17417C8.40081 5.82254 8.87772 5.625 9.375 5.625H35.625C36.1223 5.625 36.5992 5.82254 36.9508 6.17417C37.3025 6.52581 37.5 7.00272 37.5 7.5V11.25H43.125V15H41.25V35.625H43.125V39.375H1.875V35.625H3.75ZM24.375 35.625V22.5H20.625V35.625H24.375ZM15 35.625V22.5H11.25V35.625H15ZM33.75 35.625V22.5H30V35.625H33.75ZM11.25 9.375V11.25H33.75V9.375H11.25Z" fill="#1F3A45"/>
</g>
</svg>
