<svg width="45" height="45" viewBox="0 0 45 45" fill="none" xmlns="http://www.w3.org/2000/svg">
<path d="M39.375 37.4988C39.375 37.9961 39.1775 38.473 38.8258 38.8246C38.4742 39.1763 37.9973 39.3738 37.5 39.3738H7.5C7.00272 39.3738 6.52581 39.1763 6.17418 38.8246C5.82254 38.473 5.625 37.9961 5.625 37.4988V17.7926C5.6248 17.5068 5.68991 17.2248 5.81534 16.9681C5.94078 16.7114 6.12323 16.4867 6.34875 16.3113L21.3487 4.64505C21.6779 4.38901 22.083 4.25 22.5 4.25C22.917 4.25 23.3221 4.38901 23.6513 4.64505L38.6512 16.3113C38.8768 16.4867 39.0592 16.7114 39.1847 16.9681C39.3101 17.2248 39.3752 17.5068 39.375 17.7926V37.4988ZM20.625 24.3738V35.6238H24.375V24.3738H20.625Z" fill="#789986"/>
</svg>
