<svg width="24" height="24" viewBox="0 0 24 24" fill="none" xmlns="http://www.w3.org/2000/svg">
<path d="M12 6.41016C8.75 6.41016 6.16016 9.05078 6.16016 12.25C6.16016 15.5 8.75 18.0898 12 18.0898C15.1992 18.0898 17.8398 15.5 17.8398 12.25C17.8398 9.05078 15.1992 6.41016 12 6.41016ZM12 16.0586C9.91797 16.0586 8.19141 14.3828 8.19141 12.25C8.19141 10.168 9.86719 8.49219 12 8.49219C14.082 8.49219 15.7578 10.168 15.7578 12.25C15.7578 14.3828 14.082 16.0586 12 16.0586ZM19.4141 6.20703C19.4141 5.44531 18.8047 4.83594 18.043 4.83594C17.2812 4.83594 16.6719 5.44531 16.6719 6.20703C16.6719 6.96875 17.2812 7.57812 18.043 7.57812C18.8047 7.57812 19.4141 6.96875 19.4141 6.20703ZM23.2734 7.57812C23.1719 5.75 22.7656 4.125 21.4453 2.80469C20.125 1.48438 18.5 1.07812 16.6719 0.976562C14.793 0.875 9.15625 0.875 7.27734 0.976562C5.44922 1.07812 3.875 1.48438 2.50391 2.80469C1.18359 4.125 0.777344 5.75 0.675781 7.57812C0.574219 9.45703 0.574219 15.0938 0.675781 16.9727C0.777344 18.8008 1.18359 20.375 2.50391 21.7461C3.875 23.0664 5.44922 23.4727 7.27734 23.5742C9.15625 23.6758 14.793 23.6758 16.6719 23.5742C18.5 23.4727 20.125 23.0664 21.4453 21.7461C22.7656 20.375 23.1719 18.8008 23.2734 16.9727C23.375 15.0938 23.375 9.45703 23.2734 7.57812ZM20.8359 18.9531C20.4805 19.9688 19.668 20.7305 18.7031 21.1367C17.1797 21.7461 13.625 21.5938 12 21.5938C10.3242 21.5938 6.76953 21.7461 5.29688 21.1367C4.28125 20.7305 3.51953 19.9688 3.11328 18.9531C2.50391 17.4805 2.65625 13.9258 2.65625 12.25C2.65625 10.625 2.50391 7.07031 3.11328 5.54688C3.51953 4.58203 4.28125 3.82031 5.29688 3.41406C6.76953 2.80469 10.3242 2.95703 12 2.95703C13.625 2.95703 17.1797 2.80469 18.7031 3.41406C19.668 3.76953 20.4297 4.58203 20.8359 5.54688C21.4453 7.07031 21.293 10.625 21.293 12.25C21.293 13.9258 21.4453 17.4805 20.8359 18.9531Z" fill="#A2B4A8"/>
</svg>
