<svg width="24" height="23" viewBox="0 0 24 23" fill="none" xmlns="http://www.w3.org/2000/svg">
<path d="M5.70312 23V7.81641H0.980469V23H5.70312ZM3.31641 5.78516C4.83984 5.78516 6.05859 4.51562 6.05859 2.99219C6.05859 1.51953 4.83984 0.300781 3.31641 0.300781C1.84375 0.300781 0.625 1.51953 0.625 2.99219C0.625 4.51562 1.84375 5.78516 3.31641 5.78516ZM23.3242 23H23.375V14.6719C23.375 10.6094 22.4609 7.46094 17.6875 7.46094C15.4023 7.46094 13.8789 8.73047 13.2188 9.89844H13.168V7.81641H8.64844V23H13.3711V15.4844C13.3711 13.5039 13.7266 11.625 16.1641 11.625C18.6016 11.625 18.6523 13.8594 18.6523 15.6367V23H23.3242Z" fill="#A2B4A8"/>
</svg>
