<svg width="267" height="25" viewBox="0 0 267 25" fill="none" xmlns="http://www.w3.org/2000/svg">
<path d="M113.483 0.493164L129.741 20.3827V0.493164H131.57V24.5403H130.847L114.549 4.68576V24.5442H112.686V0.497054L113.483 0.493164Z" fill="#1F3A45"/>
<path d="M131.715 24.6923H130.769L130.722 24.6379L114.698 5.10224V24.6923H112.533V0.345703H113.549L113.592 0.400152L129.585 19.9669V0.345703H131.715V24.6923ZM130.914 24.3928H131.418V0.641283H129.89V20.8031L113.412 0.641283H112.838V24.3928H114.401V4.26605L130.914 24.3928Z" fill="#1F3A45"/>
<path d="M203.442 14.9222L194.021 0.528169V0.493164H196.194L204.376 13.1371L212.589 0.493164H214.762V0.528169L205.302 14.9222V24.5403H203.442V14.9222Z" fill="#1F3A45"/>
<path d="M205.455 24.6923H203.294V14.9692L193.869 0.571279V0.345703H196.276L196.319 0.415709L204.372 12.8651L212.503 0.34959H214.91V0.579057L214.887 0.617948L205.455 14.977V24.6923ZM203.591 24.3928H205.154V14.8798L205.177 14.8409L214.508 0.641283H212.668L204.372 13.4096L196.112 0.641283H194.272L203.591 14.8759V24.3928Z" fill="#1F3A45"/>
<path d="M75.8642 0.400391H59.2422V2.31H75.8642V0.400391Z" fill="#1F3A45"/>
<path d="M76.0167 2.46202H59.0938V0.25293H76.0167V2.46202ZM59.3946 2.16255H75.7158V0.548512H59.3946V2.16255Z" fill="#1F3A45"/>
<path d="M75.8642 11.6055H59.2422V13.5151H75.8642V11.6055Z" fill="#1F3A45"/>
<path d="M76.0167 13.6671H59.0938V11.458H76.0167V13.6671ZM59.3946 13.3676H75.7158V11.7536H59.3946V13.3676Z" fill="#1F3A45"/>
<path d="M75.8642 22.8145H59.2422V24.7241H75.8642V22.8145Z" fill="#1F3A45"/>
<path d="M76.0167 24.8722H59.0938V22.6631H76.0167V24.8722ZM59.3946 24.5766H75.7158V22.9626H59.3946V24.5766Z" fill="#1F3A45"/>
<path d="M102.206 0.400391H85.584V2.31H102.206V0.400391Z" fill="#1F3A45"/>
<path d="M102.355 2.46202H85.4316V0.25293H102.355V2.46202ZM85.7325 2.16255H102.054V0.548512H85.7325V2.16255Z" fill="#1F3A45"/>
<path d="M102.206 11.6064H85.584V13.5161H102.206V11.6064Z" fill="#1F3A45"/>
<path d="M102.355 13.6671H85.4316V11.458H102.355V13.6671ZM85.7325 13.3676H102.054V11.7536H85.7325V13.3676Z" fill="#1F3A45"/>
<path d="M102.206 22.8135H85.584V24.7231H102.206V22.8135Z" fill="#1F3A45"/>
<path d="M102.355 24.8712H85.4355V22.6621H102.355V24.8712ZM85.7325 24.5756H102.054V22.9616H85.7325V24.5756Z" fill="#1F3A45"/>
<path d="M158.632 0.400391H142.01V2.31H158.632V0.400391Z" fill="#1F3A45"/>
<path d="M158.78 2.46202H141.857V0.25293H158.78V2.46202ZM142.158 2.16255H158.479V0.548512H142.158V2.16255Z" fill="#1F3A45"/>
<path d="M158.632 11.6064H142.01V13.5161H158.632V11.6064Z" fill="#1F3A45"/>
<path d="M158.78 13.6671H141.857V11.458H158.78V13.6671ZM142.158 13.3676H158.479V11.7536H142.158V13.3676Z" fill="#1F3A45"/>
<path d="M158.632 22.8145H142.01V24.7241H158.632V22.8145Z" fill="#1F3A45"/>
<path d="M158.78 24.8722H141.857V22.6631H158.78V24.8722ZM142.158 24.5766H158.479V22.9626H142.158V24.5766Z" fill="#1F3A45"/>
<path d="M33.2402 0.494141C36.1591 0.494141 39.0232 0.494141 41.9537 0.494141C47.2014 0.494141 49.8584 4.23947 49.8935 7.98481C49.9287 11.9013 47.3381 15.3355 42.0592 15.3355L50.5852 24.5413H48.1352L39.7812 15.4366L33.2285 15.4327V13.6825H41.7466C45.9588 13.6825 47.8226 11.3101 47.8539 7.94592C47.889 5.13011 45.9549 2.20929 41.9498 2.20929H33.2363L33.2402 0.494141Z" fill="#1F3A45"/>
<path d="M50.9212 24.6933H48.0649L39.7109 15.5886L33.0762 15.5847V13.5351H41.7428C45.5486 13.5351 47.6664 11.5515 47.7015 7.94623C47.7211 6.42554 47.1506 4.97096 46.1425 3.95198C45.107 2.90967 43.6574 2.3574 41.9499 2.3574H33.084L33.0879 0.342773H41.9499C47.4593 0.342773 50.003 4.30201 50.0382 7.98123C50.0577 10.0736 49.3348 11.9638 48.0024 13.3017C46.6465 14.6629 44.7124 15.4136 42.3914 15.4797L50.9212 24.6933ZM48.1939 24.3938H50.2374L41.7115 15.188H42.0514C44.4389 15.188 46.4238 14.4646 47.7875 13.0956C49.0613 11.816 49.7529 9.99974 49.7373 7.98901C49.706 4.4537 47.2522 0.646133 41.9499 0.646133H33.3888V2.0657H41.9538C43.7433 2.0657 45.2672 2.64909 46.3613 3.74974C47.428 4.82317 48.0258 6.35553 48.0063 7.954C47.9672 11.7499 45.7439 13.8384 41.7467 13.8384H33.377V15.293L39.8438 15.2969L48.1939 24.3938Z" fill="#1F3A45"/>
<path d="M170.457 0.493164C173.376 0.493164 176.24 0.493164 179.171 0.493164C184.418 0.493164 187.075 4.2385 187.11 7.98383C187.146 11.9003 184.555 15.3345 179.276 15.3345L187.802 24.5403H185.352L176.998 15.4356L170.445 15.4317V13.6816H178.963C183.176 13.6816 185.039 11.3091 185.071 7.94494C185.106 5.12913 183.172 2.20832 179.167 2.20832H170.453L170.457 0.493164Z" fill="#1F3A45"/>
<path d="M188.138 24.6923H185.282L176.928 15.5876L170.293 15.5837V13.5341H178.96C182.765 13.5341 184.883 11.5506 184.918 7.94525C184.938 6.42456 184.367 4.96999 183.359 3.95101C182.324 2.90869 180.874 2.35642 179.167 2.35642H170.301L170.305 0.341797H179.167C184.676 0.341797 187.22 4.30104 187.255 7.98025C187.274 10.0727 186.552 11.9628 185.219 13.3007C183.863 14.662 181.929 15.4126 179.608 15.4787L188.138 24.6923ZM185.415 24.3928H187.458L178.932 15.187H179.272C181.66 15.187 183.645 14.4636 185.008 13.0946C186.282 11.815 186.974 9.99877 186.958 7.98803C186.927 4.45272 184.473 0.645157 179.171 0.645157H170.609V2.06473H179.174C180.964 2.06473 182.488 2.64811 183.582 3.74877C184.649 4.8222 185.247 6.35455 185.227 7.95303C185.188 11.7489 182.965 13.8374 178.967 13.8374H170.598V15.292L177.064 15.2959L185.415 24.3928Z" fill="#1F3A45"/>
<path d="M21.7213 11.9678V20.9675C19.2011 23.4761 16.2002 24.849 12.6093 24.849C4.39595 24.849 0.148617 19.1473 0.148617 12.5862C0.11345 5.06054 5.25558 0.148438 12.6093 0.148438C15.786 0.148438 18.994 1.35021 21.4439 3.75376L20.3733 4.92053C18.2672 2.85923 15.3327 1.82859 12.6054 1.82859C5.52909 1.82859 1.90694 6.98182 1.9382 12.5473C1.9382 18.2139 5.56426 23.0949 12.6054 23.0949C15.196 23.0949 17.8882 22.2004 19.9552 20.3141V11.9639H21.7213V11.9678Z" fill="#1F3A45"/>
<path d="M12.6093 25C3.89973 25 0.000151778 18.7656 0.000151778 12.5856C-0.0154778 8.91024 1.17628 5.76773 3.44647 3.49642C5.7323 1.20955 8.90119 0 12.6093 0C15.9775 0 19.1503 1.29511 21.5494 3.65199L21.651 3.75311L20.3811 5.14157L20.2717 5.03267C18.3219 3.12305 15.4578 1.98351 12.6093 1.98351C9.542 1.98351 6.93186 2.97526 5.05241 4.85765C3.12606 6.78671 2.07498 9.52085 2.09451 12.5544C2.09451 19.7379 7.37731 22.9543 12.6093 22.9543C15.3249 22.9543 17.8765 21.9975 19.8106 20.2551V11.8194H21.8698V21.033L21.8268 21.0758C19.2089 23.6777 16.1064 25 12.6093 25ZM12.6093 0.29947C8.98325 0.29947 5.88859 1.47791 3.66138 3.70644C1.44589 5.9233 0.285392 8.99191 0.301021 12.5856C0.301021 18.6178 4.10682 24.7005 12.6132 24.7005C16.0126 24.7005 19.0252 23.4249 21.5768 20.9046V12.115H20.1154V20.3796L20.0685 20.4224C18.0757 22.2425 15.4265 23.2421 12.6171 23.2421C9.26458 23.2421 6.47079 22.1375 4.53273 20.0451C2.77049 18.1433 1.80146 15.4792 1.80146 12.5467C1.78192 9.43528 2.86427 6.62726 4.84923 4.63986C6.78338 2.70302 9.47167 1.68015 12.6171 1.68015C15.4851 1.68015 18.3766 2.80803 20.3772 4.70597L21.2446 3.757C18.908 1.52847 15.8485 0.29947 12.6093 0.29947Z" fill="#1F3A45"/>
<path d="M12.6093 25C3.89973 25 0.000151778 18.7656 0.000151778 12.5856C-0.0154778 8.91024 1.17628 5.76773 3.44647 3.49642C5.7323 1.20955 8.90119 0 12.6093 0C15.9775 0 19.1503 1.29511 21.5494 3.65199L21.651 3.75311L20.4827 5.02878L20.26 4.82654L21.2329 3.76478C18.9041 1.52847 15.8446 0.29947 12.6054 0.29947C8.97934 0.29947 5.88468 1.47791 3.65747 3.70644C1.44198 5.9233 0.281483 8.99191 0.297113 12.5856C0.297113 18.6178 4.10291 24.7005 12.6093 24.7005C16.0087 24.7005 19.0213 23.4249 21.5729 20.9046V11.9672H21.8737V21.0291L21.8307 21.0719C19.2089 23.6777 16.1064 25 12.6093 25Z" fill="#1F3A45"/>
<path d="M242.524 3.24374L253.371 14.0403H253.375L267 0.474609L263.034 0.478496L253.371 10.0655L243.712 0.478496L239.516 0.474609V24.6929H242.669L242.524 3.24374Z" fill="#1F3A45"/>
<path d="M263.855 24.5451L263.879 14.4137L266.962 11.6445L267.001 24.5335L263.855 24.5451Z" fill="#1F3A45"/>
</svg>
