<svg width="45" height="45" viewBox="0 0 45 45" fill="none" xmlns="http://www.w3.org/2000/svg">
<g opacity="0.4">
<path d="M39.375 3.75V41.25H35.625V26.25H30V13.125C30 10.6386 30.9877 8.25403 32.7459 6.49587C34.504 4.73772 36.8886 3.75 39.375 3.75ZM16.875 26.0625V41.25H13.125V26.0625C11.0078 25.6296 9.10499 24.4788 7.7384 22.8048C6.37181 21.1307 5.62526 19.036 5.625 16.875V5.625H9.375V18.75H13.125V5.625H16.875V18.75H20.625V5.625H24.375V16.875C24.3747 19.036 23.6282 21.1307 22.2616 22.8048C20.895 24.4788 18.9922 25.6296 16.875 26.0625Z" fill="#1F3A45"/>
</g>
</svg>
