<svg width="45" height="46" viewBox="0 0 45 46" fill="none" xmlns="http://www.w3.org/2000/svg">
<path d="M24.2839 3.71484V6.30928L34.4343 9.69545L41.8075 7.23905L43.0925 11.0881L36.9373 13.1405L43.2225 30.4205C41.0056 32.7287 37.8854 34.166 34.4343 34.166C30.9811 34.166 27.8629 32.7287 25.6461 30.4205L31.9271 13.1405L24.2839 10.5907V38.2261H32.4042V42.2863H12.1034V38.2261H20.2237V10.5907L12.5744 13.1405L18.8595 30.4205C16.6447 32.7287 13.5245 34.166 10.0734 34.166C6.62019 34.166 3.502 32.7287 1.28516 30.4205L7.56621 13.1405L1.41508 11.0901L2.70012 7.23702L10.0734 9.69342L20.2237 6.30928V3.71484H24.2839ZM34.4343 18.1345L31.5556 26.0457H37.3109L34.4343 18.1345ZM10.0734 18.1345L7.19471 26.0457H12.95L10.0734 18.1345Z" fill="#EB703B"/>
</svg>
